<svg width="43" height="43" viewBox="0 0 43 43" fill="none" xmlns="http://www.w3.org/2000/svg">
<path d="M30.4287 0C34.0698 0 37.2782 1.21398 39.5322 3.55469C41.786 5.80865 43 8.92943 43 12.5703V30.4297C42.9999 34.1571 41.7857 37.3643 39.4453 39.6182C37.1914 41.7854 34.0704 42.9999 30.3428 43H12.6572C9.10282 43 5.98133 41.8722 3.64062 39.6182C1.21361 37.2776 5.83945e-05 34.0702 0 30.3428V12.5703C6.79025e-05 5.02817 5.02817 6.78822e-05 12.5703 0H30.4287ZM12.6572 3.98828C10.0564 3.98828 7.8019 4.76841 6.32812 6.24219C4.76794 7.8026 3.98831 9.9698 3.98828 12.5703V30.3428C3.98833 33.03 4.76785 35.1974 6.32812 36.7578C7.8886 38.2316 10.0564 39.0117 12.6572 39.0117H30.3428C32.9434 39.0117 35.1105 38.2315 36.6709 36.7578C38.2313 35.2841 39.1854 33.1169 39.1855 30.4297V12.5703C39.1855 10.0563 38.3185 7.88857 36.8447 6.32812C35.2843 4.76772 33.1164 3.98828 30.5156 3.98828H12.6572ZM21.5 10.3164C27.5684 10.3165 32.5967 15.3446 32.5967 21.4131C32.5965 27.4814 27.655 32.5097 21.5 32.5098C15.3449 32.5098 10.4035 27.5681 10.4033 21.4131C10.4033 15.2579 15.4315 10.3164 21.5 10.3164ZM21.5 14.3037C17.5988 14.3037 14.3906 17.5119 14.3906 21.4131C14.3908 25.3141 17.5989 28.5215 21.5 28.5215C25.401 28.5214 28.6082 25.3141 28.6084 21.4131C28.6084 17.512 25.4011 14.3038 21.5 14.3037ZM33.0303 7.54297C34.4185 7.54314 35.5438 8.66839 35.5439 10.0566C35.5439 11.445 34.4186 12.5711 33.0303 12.5713C31.6418 12.5713 30.5156 11.4451 30.5156 10.0566C30.5158 8.66828 31.6419 7.54297 33.0303 7.54297Z" fill="white"/>
</svg>
